<?xml version="1.0" standalone="no"?>
<!DOCTYPE svg PUBLIC "-//W3C//DTD SVG 20010904//EN"
 "http://www.w3.org/TR/2001/REC-SVG-20010904/DTD/svg10.dtd">
<svg version="1.0" xmlns="http://www.w3.org/2000/svg"
 width="938.000000pt" height="458.000000pt" viewBox="0 0 938.000000 458.000000"
 preserveAspectRatio="xMidYMid meet">
<metadata>
Created by potrace 1.16, written by Peter Selinger 2001-2019
</metadata>
<g transform="translate(0.000000,458.000000) scale(0.100000,-0.100000)"
fill="#000000" stroke="none">
<path d="M1246 4304 c-155 -28 -347 -104 -479 -188 -211 -136 -371 -337 -446
-562 -66 -197 -64 -163 -68 -1402 l-4 -1122 476 0 475 0 0 555 0 555 204 0
c321 0 490 25 671 101 287 119 494 398 544 734 20 135 22 201 11 314 -21 208
-76 370 -177 520 -181 269 -452 447 -755 496 -116 19 -346 18 -452 -1z m443
-326 c207 -54 392 -203 494 -397 68 -129 94 -255 88 -438 l-1 -53 -450 0 -449
0 -8 38 c-11 51 -8 149 6 200 l12 42 149 0 c83 0 150 2 150 4 0 2 -7 23 -15
47 -29 82 -84 119 -179 119 -69 0 -95 -10 -146 -56 -76 -69 -106 -162 -97
-308 6 -112 33 -188 84 -238 88 -86 187 -90 289 -12 30 23 37 25 48 13 47 -51
316 -380 316 -386 -1 -14 -92 -71 -172 -108 -129 -59 -184 -70 -353 -70 -176
1 -234 14 -371 81 -211 104 -365 293 -424 524 -19 74 -21 104 -17 235 4 127 8
162 30 226 46 135 104 226 213 333 122 119 292 202 464 226 90 12 248 2 339
-22z"/>
<path d="M7033 3540 c-44 -27 -66 -64 -67 -114 -2 -82 54 -136 140 -136 61 0
92 15 121 59 43 64 24 148 -43 192 -38 25 -109 25 -151 -1z"/>
<path d="M3249 3153 c-1 -392 -3 -405 -63 -436 -32 -17 -43 -18 -76 -8 -53 16
-90 62 -90 113 0 78 93 134 161 98 18 -10 19 -6 19 150 l0 160 -64 0 c-282 0
-478 -275 -387 -543 26 -77 101 -167 174 -210 112 -66 269 -75 380 -22 71 34
147 100 181 159 52 88 56 129 56 523 l0 363 -145 0 -145 0 -1 -347z"/>
<path d="M6390 3143 c0 -389 6 -444 56 -528 64 -111 216 -195 350 -195 l24 0
0 154 0 153 -41 6 c-22 3 -49 13 -60 23 -21 19 -39 73 -39 117 0 27 1 27 65
27 l65 0 0 150 0 149 -62 3 -63 3 -3 148 -3 147 -144 0 -145 0 0 -357z"/>
<path d="M4825 3216 c-116 -37 -207 -116 -258 -224 -29 -61 -32 -75 -31 -162
0 -112 23 -182 84 -258 113 -144 325 -194 490 -115 104 49 177 133 210 241 35
112 42 106 -122 97 -82 -4 -145 -11 -147 -17 -2 -6 -16 -24 -31 -41 -22 -25
-34 -30 -72 -30 -89 0 -144 74 -116 158 25 75 115 103 179 56 28 -21 39 -22
172 -19 164 3 164 4 124 92 -65 142 -216 237 -374 235 -37 0 -86 -6 -108 -13z"/>
<path d="M5737 3220 c-163 -41 -289 -192 -303 -363 -21 -243 160 -437 408
-437 l68 0 0 150 c0 83 -1 150 -3 150 -1 0 -17 -4 -34 -9 -73 -21 -143 28
-143 100 0 74 43 119 115 119 51 0 74 -15 96 -63 16 -37 19 -67 19 -240 l0
-198 143 3 142 3 3 195 c1 107 -2 226 -7 264 -20 141 -107 258 -228 305 -65
26 -212 37 -276 21z"/>
<path d="M7680 3215 c-234 -66 -355 -310 -268 -543 25 -66 117 -168 185 -204
110 -58 259 -63 368 -12 78 36 163 121 200 199 37 77 46 200 21 286 -32 108
-115 202 -224 254 -72 35 -197 43 -282 20z m183 -296 c15 -11 32 -37 38 -58
24 -80 -31 -154 -114 -154 -34 0 -46 6 -74 36 -46 51 -47 111 -2 162 27 31 37
35 79 35 33 0 55 -6 73 -21z"/>
<path d="M8594 3221 c-52 -13 -134 -63 -171 -104 -19 -22 -47 -65 -62 -96 -26
-55 -26 -59 -29 -318 l-3 -262 23 -6 c13 -3 77 -4 143 -3 l120 3 5 240 c3 132
9 246 13 253 5 6 25 12 46 12 58 0 61 -15 61 -280 l0 -230 139 0 c77 0 141 3
143 8 2 4 1 129 -2 277 l-5 270 -29 58 c-35 68 -99 131 -163 159 -50 22 -177
33 -229 19z"/>
<path d="M6964 3205 c-3 -6 -3 -181 -2 -390 l3 -380 143 -3 142 -3 0 393 0
393 -141 0 c-86 0 -143 -4 -145 -10z"/>
<path d="M3700 2971 c0 -125 5 -252 10 -282 21 -111 90 -202 187 -251 41 -19
63 -23 148 -23 95 0 103 2 164 35 75 40 139 115 167 193 15 44 19 93 22 305
l4 252 -146 0 -146 0 0 -233 c0 -250 -2 -260 -52 -272 -19 -5 -32 -1 -47 14
-20 20 -21 31 -21 256 l0 235 -145 0 -145 0 0 -229z"/>
<path d="M5813 2156 l-28 -24 -3 -644 c-1 -353 0 -653 3 -665 3 -12 15 -32 27
-43 22 -20 28 -20 1595 -20 l1574 0 24 25 25 24 0 659 0 659 -25 27 -24 26
-1570 0 -1570 0 -28 -24z m527 -231 c53 -28 82 -95 40 -95 -11 0 -26 12 -35
29 -24 48 -108 53 -140 8 -22 -31 -3 -53 62 -72 32 -9 71 -21 86 -27 85 -33
72 -148 -19 -178 -43 -15 -117 -7 -152 16 -24 16 -54 73 -46 86 11 18 40 5 59
-24 35 -55 136 -60 162 -8 22 44 0 61 -119 94 -35 10 -63 25 -73 38 -17 26
-20 71 -5 98 25 46 122 65 180 35z m1913 9 c12 -12 -6 -34 -28 -34 -22 0 -35
-17 -35 -46 0 -8 10 -14 26 -14 33 0 30 -33 -4 -38 -21 -3 -22 -7 -22 -108 0
-101 -1 -104 -22 -104 -23 0 -23 2 -20 105 3 100 2 105 -17 105 -14 0 -21 6
-21 20 0 11 7 20 15 20 8 0 17 14 21 35 3 20 13 43 21 50 14 15 74 21 86 9z
m-847 -106 c18 -8 44 -46 44 -63 0 -3 -11 -5 -24 -5 -15 0 -27 7 -31 19 -12
40 -82 34 -105 -9 -21 -40 -8 -121 24 -142 6 -4 24 -8 39 -8 21 0 32 8 45 30
19 34 52 41 52 11 0 -65 -108 -104 -164 -60 -81 64 -64 213 27 237 34 9 59 6
93 -10z m513 -9 c46 -43 13 -66 -39 -27 -25 18 -35 20 -58 12 -16 -6 -27 -17
-27 -28 0 -14 16 -24 69 -41 37 -12 72 -28 77 -36 17 -26 9 -65 -17 -90 -21
-19 -36 -24 -81 -24 -48 0 -58 4 -79 29 -28 31 -27 50 2 54 12 2 23 -6 29 -20
19 -44 126 -28 109 16 -3 8 -31 21 -63 30 -66 18 -91 40 -91 79 0 65 115 96
169 46z m-1280 5 c25 -18 51 -71 51 -104 0 -19 -6 -20 -96 -20 -94 0 -95 0
-88 -22 18 -62 86 -79 122 -33 23 29 52 33 52 7 0 -31 -45 -64 -92 -69 -80 -7
-130 41 -130 125 1 88 38 131 112 132 26 0 55 -7 69 -16z m295 -26 c9 -24 25
-68 35 -98 12 -34 22 -49 25 -40 3 8 19 51 35 95 22 62 34 81 50 83 29 5 27
-5 -23 -133 -37 -94 -46 -110 -67 -113 -22 -2 -28 7 -66 112 -24 62 -43 119
-43 125 0 6 9 11 19 11 14 0 24 -13 35 -42z m729 22 c23 -19 47 -72 47 -107 0
-10 -26 -13 -95 -13 -104 0 -112 -6 -74 -54 28 -36 82 -36 105 -1 18 27 54 34
54 11 0 -8 -11 -28 -24 -43 -21 -24 -31 -28 -79 -28 -45 0 -60 5 -81 24 -54
51 -55 162 -1 209 35 30 111 31 148 2z m788 -8 c62 -56 47 -187 -25 -217 -45
-19 -70 -19 -111 1 -70 33 -84 156 -25 216 24 23 37 28 79 28 41 0 56 -5 82
-28z m-2346 -437 c29 -28 33 -79 9 -106 -14 -15 -13 -19 10 -42 28 -28 32 -51
16 -92 -14 -37 -65 -55 -155 -55 l-75 0 0 160 0 160 85 0 c78 0 88 -2 110 -25z
m1155 -115 l0 -140 75 0 c68 0 75 -2 75 -20 0 -19 -7 -20 -100 -20 l-100 0 0
160 0 160 25 0 25 0 0 -140z m-768 94 c-4 -29 -1 -36 17 -41 26 -7 28 -33 2
-33 -17 0 -19 -9 -20 -75 -1 -72 0 -76 24 -85 34 -13 33 -40 -2 -40 -51 0 -58
12 -62 106 -2 63 -8 92 -19 103 -14 15 -14 16 1 19 11 2 17 13 17 32 0 17 7
33 18 39 26 16 28 14 24 -25z m128 -4 c0 -33 3 -40 20 -40 11 0 20 -7 20 -15
0 -8 -9 -15 -20 -15 -18 0 -20 -7 -20 -79 0 -70 2 -79 20 -84 11 -3 20 -13 20
-22 0 -12 -8 -16 -32 -13 -47 4 -60 36 -54 126 4 59 3 72 -9 72 -8 0 -15 9
-15 20 0 11 6 19 13 18 7 -2 12 8 13 25 1 26 17 46 37 47 4 0 7 -18 7 -40z
m-253 -62 c13 -13 26 -41 30 -61 l6 -37 -87 0 c-96 0 -107 -10 -61 -55 31 -32
58 -32 89 1 15 17 30 25 40 21 23 -9 20 -22 -15 -51 -45 -38 -110 -37 -150 3
-25 25 -29 37 -29 83 1 60 16 94 51 115 34 19 97 10 126 -19z m472 18 c30 -16
51 -53 51 -91 0 -25 -1 -25 -86 -25 -84 0 -85 0 -79 -22 9 -29 42 -58 67 -58
10 0 30 12 45 26 24 24 53 26 53 4 0 -6 -11 -22 -25 -35 -34 -35 -112 -35
-152 -1 -25 22 -28 30 -28 89 0 51 5 70 20 87 36 41 86 50 134 26z m755 4 c29
-11 51 -42 61 -87 l7 -33 -86 0 c-79 0 -86 -2 -86 -20 0 -27 35 -60 63 -60 13
0 34 11 47 25 28 30 50 32 50 6 0 -54 -111 -82 -163 -40 -60 47 -57 161 6 199
35 22 63 25 101 10z m261 -2 c30 -13 33 -24 38 -140 3 -78 1 -88 -14 -88 -10
0 -19 6 -21 12 -4 10 -10 10 -32 0 -45 -20 -102 -15 -120 10 -37 52 -2 103 76
114 61 9 76 18 62 41 -17 27 -80 30 -96 4 -14 -23 -48 -28 -48 -8 0 51 92 84
155 55z m305 -3 c39 20 73 19 101 -4 21 -17 24 -29 27 -120 4 -97 4 -101 -17
-101 -11 0 -21 3 -22 8 0 4 -1 43 -3 87 -1 45 -6 86 -10 93 -10 17 -62 15 -80
-4 -12 -12 -16 -36 -16 -100 0 -77 -2 -84 -20 -84 -19 0 -20 7 -20 114 0 83 3
116 13 119 6 2 13 -2 15 -9 3 -11 9 -11 32 1z m444 -6 c25 -20 26 -24 26 -120
0 -92 -1 -99 -20 -99 -18 0 -20 7 -20 88 0 96 -7 112 -51 112 -41 0 -52 -23
-57 -116 -4 -74 -7 -84 -23 -84 -17 0 -19 9 -19 115 0 108 1 115 20 115 11 0
20 -5 20 -11 0 -5 10 -3 22 5 31 22 70 20 102 -5z m214 5 c12 -8 22 -10 22 -5
0 6 9 11 21 11 20 0 20 -4 17 -136 -3 -135 -3 -136 -31 -160 -40 -34 -108 -34
-142 1 -14 13 -25 29 -25 35 0 17 38 11 49 -7 6 -11 22 -17 45 -17 42 0 52 8
62 48 6 26 5 28 -12 21 -33 -15 -92 -10 -114 10 -11 10 -25 35 -30 56 -28 103
62 197 138 143z"/>
<path d="M8325 1785 c-52 -51 -21 -165 46 -165 45 0 69 31 69 90 0 41 -5 56
-25 75 -13 14 -33 25 -45 25 -11 0 -32 -11 -45 -25z"/>
<path d="M5950 1175 l0 -57 66 4 c68 4 84 14 84 53 0 39 -16 49 -84 53 l-66 4
0 -57z"/>
<path d="M8745 1268 c-21 -16 -25 -28 -25 -68 0 -56 18 -80 60 -80 36 0 60 32
60 80 0 69 -49 104 -95 68z"/>
<path d="M2053 2140 c-73 -44 -87 -144 -30 -207 29 -31 41 -37 89 -41 98 -8
157 39 160 126 4 110 -123 181 -219 122z"/>
<path d="M3942 2141 c-125 -79 -76 -251 73 -251 131 0 192 138 101 228 -29 30
-43 36 -88 39 -41 3 -60 -1 -86 -16z"/>
<path d="M4307 1736 c2 -404 7 -449 65 -539 67 -105 204 -177 335 -177 l23 0
0 155 0 155 -25 0 c-65 0 -99 42 -107 130 l-3 35 68 3 67 3 0 149 0 150 -65 0
-65 0 0 150 0 150 -147 0 -148 0 2 -364z"/>
<path d="M1705 1816 c-65 -21 -98 -42 -144 -91 -83 -90 -85 -103 -89 -417 l-3
-278 145 0 146 0 0 216 c0 144 4 222 12 237 19 37 40 48 81 42 l37 -5 0 149
c0 146 0 149 -22 155 -37 10 -120 6 -163 -8z"/>
<path d="M2728 1821 c-113 -23 -235 -120 -286 -229 -24 -51 -27 -69 -27 -167
0 -105 2 -114 33 -177 39 -79 121 -159 202 -197 49 -23 68 -26 165 -26 99 0
116 3 169 27 171 81 268 260 236 438 -42 230 -258 376 -492 331z m164 -310
c30 -26 33 -35 33 -85 0 -47 -4 -59 -29 -85 -35 -36 -68 -45 -112 -31 -72 24
-104 102 -69 170 35 67 120 82 177 31z"/>
<path d="M3605 1821 c-55 -14 -110 -45 -153 -89 -87 -86 -104 -168 -100 -477
l3 -220 143 -3 142 -3 0 193 c0 106 5 211 10 233 12 55 44 79 92 71 l38 -6 0
149 c0 146 0 149 -22 155 -30 8 -115 6 -153 -3z"/>
<path d="M1982 1423 l3 -388 145 0 145 0 2 388 2 387 -149 0 -150 0 2 -387z"/>
<path d="M3870 1420 l0 -390 145 0 145 0 0 390 0 390 -145 0 -145 0 0 -390z"/>
<path d="M4870 1532 c0 -313 4 -338 67 -412 21 -24 55 -51 77 -61 55 -25 148
-24 203 1 24 10 45 16 47 12 8 -13 -48 -105 -76 -126 -33 -23 -132 -34 -177
-18 l-31 11 0 -125 0 -124 28 -12 c15 -6 74 -12 132 -12 98 -1 110 1 172 31
143 67 230 191 248 353 5 47 10 237 10 423 l0 338 -147 -3 -148 -3 -5 -233
c-4 -192 -8 -234 -20 -242 -24 -15 -55 -12 -73 8 -15 16 -17 48 -17 245 l0
227 -145 0 -145 0 0 -278z"/>
</g>
</svg>
